<svg xmlns="http://www.w3.org/2000/svg" viewBox="0 0 108 108" width="108" height="108" role="img" aria-label="VaultAI logo">
  <defs>
    <radialGradient id="vaBg" cx="50%" cy="42%" r="72%">
      <stop offset="0" stop-color="#16103A"/>
      <stop offset="0.5" stop-color="#0A0820"/>
      <stop offset="1" stop-color="#030308"/>
    </radialGradient>
    <linearGradient id="vaRim" x1="0" y1="0" x2="1" y2="1">
      <stop offset="0" stop-color="#7B61FF"/>
      <stop offset="0.5" stop-color="#00D4C8"/>
      <stop offset="1" stop-color="#FF5FA0"/>
    </linearGradient>
    <linearGradient id="vaV" x1="0" y1="0" x2="0" y2="1">
      <stop offset="0" stop-color="#FFFFFF"/>
      <stop offset="1" stop-color="#CEC0FF"/>
    </linearGradient>
    <filter id="vaGlow" x="-40%" y="-40%" width="180%" height="180%">
      <feGaussianBlur stdDeviation="2.2" result="b"/>
      <feMerge><feMergeNode in="b"/><feMergeNode in="SourceGraphic"/></feMerge>
    </filter>
  </defs>
  <rect x="2" y="2" width="104" height="104" rx="26" fill="url(#vaBg)"/>
  <rect x="2.75" y="2.75" width="102.5" height="102.5" rx="25.25" fill="none" stroke="url(#vaRim)" stroke-opacity="0.55" stroke-width="1.5"/>
  <g filter="url(#vaGlow)">
    <path fill="url(#vaV)" d="M40,40 L48,40 L54,66 L50,66 Z"/>
    <path fill="url(#vaV)" d="M68,40 L60,40 L54,66 L58,66 Z"/>
    <path fill="url(#vaV)" d="M50,66 L58,66 L54,71 Z"/>
    <path fill="#FFB347" d="M72,25 L73.77,30.23 L79,32 L73.77,33.77 L72,39 L70.23,33.77 L65,32 L70.23,30.23 Z"/>
  </g>
</svg>
