<svg xmlns="http://www.w3.org/2000/svg" viewBox="0 0 1200 630" width="1200" height="630">
  <defs>
    <radialGradient id="ogV" cx="82%" cy="-5%" r="70%">
      <stop offset="0" stop-color="#7B61FF" stop-opacity="0.45"/>
      <stop offset="1" stop-color="#7B61FF" stop-opacity="0"/>
    </radialGradient>
    <radialGradient id="ogT" cx="6%" cy="12%" r="55%">
      <stop offset="0" stop-color="#00D4C8" stop-opacity="0.28"/>
      <stop offset="1" stop-color="#00D4C8" stop-opacity="0"/>
    </radialGradient>
    <radialGradient id="ogR" cx="55%" cy="118%" r="60%">
      <stop offset="0" stop-color="#FF5FA0" stop-opacity="0.28"/>
      <stop offset="1" stop-color="#FF5FA0" stop-opacity="0"/>
    </radialGradient>
    <linearGradient id="ogGrad" x1="0" y1="0" x2="1" y2="0.3">
      <stop offset="0" stop-color="#7B61FF"/>
      <stop offset="0.55" stop-color="#00D4C8"/>
      <stop offset="1" stop-color="#FF5FA0"/>
    </linearGradient>
    <radialGradient id="ogBadge" cx="50%" cy="42%" r="72%">
      <stop offset="0" stop-color="#16103A"/>
      <stop offset="0.55" stop-color="#0A0820"/>
      <stop offset="1" stop-color="#030308"/>
    </radialGradient>
  </defs>

  <rect width="1200" height="630" fill="#08080F"/>
  <rect width="1200" height="630" fill="url(#ogV)"/>
  <rect width="1200" height="630" fill="url(#ogT)"/>
  <rect width="1200" height="630" fill="url(#ogR)"/>
  <rect x="20" y="20" width="1160" height="590" rx="28" fill="none" stroke="#7B61FF" stroke-opacity="0.18" stroke-width="2"/>

  <!-- brand -->
  <g transform="translate(96 96)">
    <rect width="64" height="64" rx="16" fill="url(#ogBadge)" stroke="#7B61FF" stroke-opacity="0.5"/>
    <g transform="translate(8 8) scale(0.46)">
      <path fill="#FFFFFF" d="M40,40 L48,40 L54,66 L50,66 Z"/>
      <path fill="#FFFFFF" d="M68,40 L60,40 L54,66 L58,66 Z"/>
      <path fill="#FFFFFF" d="M50,66 L58,66 L54,71 Z"/>
      <path fill="#FFB347" d="M72,25 L73.77,30.23 L79,32 L73.77,33.77 L72,39 L70.23,33.77 L65,32 L70.23,30.23 Z"/>
    </g>
    <text x="84" y="44" font-family="'Plus Jakarta Sans', Arial, sans-serif" font-size="34" font-weight="800" fill="#EEEEFF" letter-spacing="-0.5">VaultAI</text>
  </g>

  <!-- eyebrow -->
  <g transform="translate(96 250)">
    <circle cx="6" cy="-6" r="6" fill="#FFB347"/>
    <text x="22" y="0" font-family="'DM Mono', monospace" font-size="22" fill="#00D4C8" letter-spacing="3">OFFLINE-FIRST · ON-DEVICE AI</text>
  </g>

  <!-- headline -->
  <text x="94" y="346" font-family="'Plus Jakarta Sans', Arial, sans-serif" font-size="86" font-weight="800" fill="#EEEEFF" letter-spacing="-2">Private AI for</text>
  <text x="94" y="446" font-family="'Plus Jakarta Sans', Arial, sans-serif" font-size="86" font-weight="800" fill="url(#ogGrad)" letter-spacing="-2">your money.</text>

  <!-- subline -->
  <text x="96" y="520" font-family="'Plus Jakarta Sans', Arial, sans-serif" font-size="28" fill="#9999BB">A real language model that runs entirely on your phone. Zero data uploaded.</text>

  <!-- accent bar -->
  <rect x="96" y="556" width="220" height="6" rx="3" fill="url(#ogGrad)"/>
</svg>
